<svg viewBox="0 0 120 120" fill="none" xmlns="http://www.w3.org/2000/svg">
  <ellipse cx="60" cy="65" rx="42" ry="38" fill="#F5D6B8"/>
  <path d="M22 40 Q18 15 35 28" fill="#D4A574" stroke="#C4956A" stroke-width="1"/>
  <path d="M98 40 Q102 15 85 28" fill="#D4A574" stroke="#C4956A" stroke-width="1"/>
  <path d="M26 36 Q24 22 34 30" fill="#E8BFA0"/>
  <path d="M94 36 Q96 22 86 30" fill="#E8BFA0"/>
  <ellipse cx="60" cy="75" rx="26" ry="22" fill="#FFF5EB"/>
  <ellipse cx="45" cy="58" rx="6" ry="7" fill="#3D2B1F"/>
  <ellipse cx="75" cy="58" rx="6" ry="7" fill="#3D2B1F"/>
  <circle cx="43" cy="55" r="2.5" fill="white"/>
  <circle cx="73" cy="55" r="2.5" fill="white"/>
  <ellipse cx="60" cy="72" rx="5" ry="3.5" fill="#3D2B1F"/>
  <path d="M55 76 Q60 82 65 76" stroke="#3D2B1F" stroke-width="1.5" fill="none" stroke-linecap="round"/>
  <ellipse cx="38" cy="70" rx="6" ry="4" fill="#FFB8B8" opacity="0.4"/>
  <ellipse cx="82" cy="70" rx="6" ry="4" fill="#FFB8B8" opacity="0.4"/>
</svg>
